<svg width="1024" height="1024" viewBox="0 0 1024 1024" fill="none" xmlns="http://www.w3.org/2000/svg">
<rect width="1024" height="1024" rx="10" fill="#FB923C"/>
<g filter="url(#filter0_dddd_461_1423)">
<path d="M380.524 680.797C341.586 680.797 312.004 666.946 291.777 639.243C271.55 611.54 261.942 580.435 262.953 545.928L249.3 526.244C243.737 517.982 234.509 499.27 221.614 470.109C208.719 440.948 202.272 404.254 202.272 360.026C202.272 309.966 215.167 268.291 240.956 234.998C266.746 201.706 299.362 185.06 338.805 185.06C381.788 185.06 415.289 203.407 439.309 240.102C463.329 276.796 475.338 316.771 475.338 360.026C475.338 388.215 471.293 414.217 463.202 438.032C455.111 461.847 448.032 481.044 441.964 495.625L448.032 505.102C452.077 511.906 457.64 522.72 464.719 537.544C471.799 552.367 475.338 567.798 475.338 583.837C475.338 611.54 466.363 634.626 448.411 653.094C430.459 671.563 407.83 680.797 380.524 680.797ZM289.501 505.102L398.728 483.231C405.808 464.763 412.761 444.35 419.587 421.993C426.414 399.637 429.827 378.981 429.827 360.026C429.827 327.463 421.863 297.452 405.934 269.992C390.005 242.532 367.629 228.802 338.805 228.802C312.51 228.802 290.766 241.195 273.572 265.982C256.379 290.769 247.783 322.117 247.783 360.026C247.783 397.936 253.598 429.891 265.229 455.893C276.859 481.895 284.95 498.298 289.501 505.102ZM380.524 637.056C394.683 637.056 406.44 632.074 415.795 622.111C425.15 612.147 429.827 599.389 429.827 583.837C429.827 574.117 427.552 564.032 423.001 553.582C418.45 543.133 413.393 533.777 407.83 525.515L308.464 545.199C307.959 566.097 313.395 586.632 324.772 606.801C336.15 626.971 354.734 637.056 380.524 637.056ZM630.835 826.602C603.528 826.602 580.899 817.368 562.947 798.899C544.996 780.431 536.02 757.345 536.02 729.642C536.02 713.603 539.56 698.172 546.639 683.349C553.719 668.525 559.281 657.712 563.327 650.907L569.395 641.43C563.327 626.849 556.247 607.652 548.156 583.837C540.065 560.022 536.02 534.02 536.02 505.831C536.02 462.576 548.03 422.601 572.049 385.907C596.069 349.212 629.57 330.865 672.553 330.865C711.996 330.865 744.612 347.511 770.402 380.803C796.192 414.096 809.087 455.772 809.087 505.831C809.087 550.059 802.639 586.632 789.744 615.55C776.849 644.468 767.621 663.058 762.058 671.32L748.405 691.733C748.911 726.24 739.176 757.345 719.202 785.048C699.228 812.751 669.772 826.602 630.835 826.602ZM721.857 650.178C726.914 642.888 735.131 626.363 746.509 600.605C757.887 574.846 763.575 543.255 763.575 505.831C763.575 467.922 754.979 436.574 737.786 411.787C720.593 387 698.849 374.607 672.553 374.607C643.729 374.607 621.353 388.337 605.424 415.797C589.495 443.257 581.531 473.268 581.531 505.831C581.531 525.272 585.071 546.049 592.15 568.163C599.23 590.277 606.309 610.568 613.389 629.037L721.857 650.178ZM630.835 782.861C656.624 782.861 675.082 772.654 686.207 752.242C697.331 731.829 702.894 711.173 702.894 690.275L603.528 671.32C598.471 679.582 593.541 688.938 588.737 699.387C583.933 709.837 581.531 719.922 581.531 729.642C581.531 745.195 586.209 757.952 595.564 767.916C604.919 777.879 616.676 782.861 630.835 782.861Z" fill="#FB923C"/>
</g>
<defs>
<filter id="filter0_dddd_461_1423" x="172.272" y="155.06" width="666.815" height="730.542" filterUnits="userSpaceOnUse" color-interpolation-filters="sRGB">
<feFlood flood-opacity="0" result="BackgroundImageFix"/>
<feColorMatrix in="SourceAlpha" type="matrix" values="0 0 0 0 0 0 0 0 0 0 0 0 0 0 0 0 0 0 127 0" result="hardAlpha"/>
<feOffset dx="-10" dy="-12"/>
<feGaussianBlur stdDeviation="9"/>
<feComposite in2="hardAlpha" operator="out"/>
<feColorMatrix type="matrix" values="0 0 0 0 1 0 0 0 0 0.667866 0 0 0 0 0.395833 0 0 0 1 0"/>
<feBlend mode="normal" in2="BackgroundImageFix" result="effect1_dropShadow_461_1423"/>
<feColorMatrix in="SourceAlpha" type="matrix" values="0 0 0 0 0 0 0 0 0 0 0 0 0 0 0 0 0 0 127 0" result="hardAlpha"/>
<feOffset/>
<feGaussianBlur stdDeviation="14"/>
<feComposite in2="hardAlpha" operator="out"/>
<feColorMatrix type="matrix" values="0 0 0 0 1 0 0 0 0 0.610602 0 0 0 0 0.291667 0 0 0 1 0"/>
<feBlend mode="normal" in2="effect1_dropShadow_461_1423" result="effect2_dropShadow_461_1423"/>
<feColorMatrix in="SourceAlpha" type="matrix" values="0 0 0 0 0 0 0 0 0 0 0 0 0 0 0 0 0 0 127 0" result="hardAlpha"/>
<feOffset dy="2"/>
<feGaussianBlur stdDeviation="15"/>
<feComposite in2="hardAlpha" operator="out"/>
<feColorMatrix type="matrix" values="0 0 0 0 1 0 0 0 0 0.506095 0 0 0 0 0.101562 0 0 0 1 0"/>
<feBlend mode="normal" in2="effect2_dropShadow_461_1423" result="effect3_dropShadow_461_1423"/>
<feColorMatrix in="SourceAlpha" type="matrix" values="0 0 0 0 0 0 0 0 0 0 0 0 0 0 0 0 0 0 127 0" result="hardAlpha"/>
<feOffset dy="35"/>
<feGaussianBlur stdDeviation="12"/>
<feComposite in2="hardAlpha" operator="out"/>
<feColorMatrix type="matrix" values="0 0 0 0 0 0 0 0 0 0 0 0 0 0 0 0 0 0 0.25 0"/>
<feBlend mode="normal" in2="effect3_dropShadow_461_1423" result="effect4_dropShadow_461_1423"/>
<feBlend mode="normal" in="SourceGraphic" in2="effect4_dropShadow_461_1423" result="shape"/>
</filter>
</defs>
</svg>
